<svg width="735" height="471" viewBox="0 0 735 471" fill="none" xmlns="http://www.w3.org/2000/svg">
<g clip-path="url(#clip0_2650_7133)">
<g style="mix-blend-mode:multiply" opacity="0.65">
<path d="M735 452.655C735 462.793 574.974 471 377.551 471C180.127 471 20.1016 462.793 20.1016 452.655C20.1016 442.517 180.127 434.311 377.551 434.311C574.974 434.311 735 442.517 735 452.655Z" fill="#D9E2ED"/>
</g>
<path d="M660.531 28.7024V428.232C660.531 444.075 647.685 456.934 631.858 456.934L97.7233 456.934C81.8961 456.934 69.0502 444.075 69.0502 428.232V28.7024C69.0502 12.859 81.8961 0 97.7233 0L631.858 0C647.685 0 660.531 12.859 660.531 28.7024Z" fill="#CCEAFF"/>
<path d="M633.965 416.733V40.2006C633.965 29.3418 625.171 20.5391 614.323 20.5391L127.385 20.5391C116.537 20.5391 107.744 29.3418 107.744 40.2006V416.733C107.744 427.592 116.537 436.395 127.385 436.395L614.323 436.395C625.171 436.395 633.965 427.592 633.965 416.733Z" fill="#F5FBFF"/>
<path d="M74.7734 402.098C119.822 405.916 165.835 407.21 209.546 400.188L146.281 437.317L74.7734 402.098Z" fill="#3B5CAD"/>
<path d="M198.828 368.721C203.738 365.912 213.91 360.338 218.995 357.902C227.545 387.351 224.191 394.856 213.997 396.041C210.621 396.435 207.355 396.874 203.957 396.611C195.649 395.997 187.999 395.009 180.523 391.652C181.028 388.975 180.918 383.401 181.4 380.724C188.064 379.627 195.605 378.047 202.247 376.971L198.806 368.721H198.828Z" fill="#F7C5B4"/>
<path d="M91.9612 368.721C87.0508 365.912 76.8793 360.338 71.7936 357.902C63.2443 387.351 66.5982 394.856 76.7916 396.041C80.1675 396.435 85.2314 397.357 88.5853 396.809C96.6524 395.492 102.79 395.382 110.244 392.025C109.739 389.348 109.871 383.423 109.367 380.724C102.703 379.627 95.1617 378.047 88.5196 376.971L91.9612 368.721Z" fill="#F7C5B4"/>
<path d="M102.593 409.58C102.593 397.687 99.0198 374.097 98.0552 357.991L92.6845 369.336L71.1797 357.903C73.3061 350.53 79.159 341.116 83.4337 334.182C92.3118 319.787 103.601 312.304 120.875 307.323C127.671 305.37 134.73 303.614 144.594 303.526H145.778C155.643 303.614 163.951 305.194 170.856 306.774C187.341 310.526 200.669 322.859 209.547 337.254C213.822 344.188 217.285 350.069 220.201 357.267L197.688 369.336L192.317 357.991C191.133 375.348 188.042 392.991 186.705 409.58H102.593Z" fill="#0080EA"/>
<path d="M136.153 277.5C135.539 282.482 132.514 298.062 131.659 299.686C130.278 302.297 124.71 305.632 122.496 306.861C122.496 306.861 123.044 315.704 146.39 315.924C169.364 316.143 170.855 306.751 170.855 306.751C168.619 305.501 162.196 303.504 161.143 299.664C160.661 297.886 157.614 283.14 156.978 278.159L136.175 277.479L136.153 277.5Z" fill="#F7C5B4"/>
<path d="M171.974 237.256C173.925 247.811 171.141 269.031 168.883 277.435C167.962 280.837 166.976 284.369 164.784 287.134C153.954 300.805 139.486 296.482 134.751 293.366C131.025 290.909 128.065 287.551 126.334 283.426C121.949 272.915 120.152 261.329 121.138 249.984C121.138 249.984 119.867 220.36 150.14 220.36C150.14 220.36 168.729 219.636 171.974 237.256Z" fill="#F7C5B4"/>
<path d="M122.498 266.31C121.84 267.253 120.35 267.231 119.451 266.507C118.552 265.783 118.157 264.62 117.938 263.501C117.719 262.404 117.631 261.285 117.697 260.166C117.741 259.354 117.851 258.52 118.377 257.905C118.903 257.291 119.78 257.05 120.547 257.269C121.314 257.51 121.906 258.213 121.994 259.003L122.498 266.288V266.31Z" fill="#F7C5B4"/>
<path d="M170.811 259.002C171.052 258.234 171.49 257.488 172.258 257.268C173.025 257.027 173.924 257.29 174.428 257.905C174.954 258.519 175.085 259.375 175.107 260.165C175.151 261.284 175.063 262.403 174.866 263.501C174.647 264.62 174.252 265.783 173.354 266.507C172.455 267.209 170.942 267.253 170.307 266.309C170.307 266.309 169.649 262.579 170.811 259.024V259.002Z" fill="#F7C5B4"/>
<path d="M145.864 267.34C145.536 268.833 145.36 271.378 145.163 272.958C145.097 273.836 144.9 275.043 145.119 275.525C145.294 275.898 146.917 276.184 147.399 276.337C147.574 276.381 147.684 276.557 147.64 276.732C147.421 277.237 146.325 276.864 145.843 276.864C145.36 276.732 144.768 276.732 144.264 276.008C143.76 274.933 144.242 273.902 144.264 272.87C144.549 271.093 144.746 268.833 145.36 267.099C145.404 266.945 145.579 266.88 145.733 266.924C145.908 266.989 145.952 267.187 145.886 267.34H145.864Z" fill="#DA806C"/>
<path d="M150.294 264.796C149.746 263.128 150.162 261.175 151.477 260.012C151.587 260.144 151.697 260.297 151.828 260.429C152.179 260.122 152.53 259.792 152.88 259.485C153.034 259.595 153.187 259.705 153.341 259.836C155.884 258.081 158.996 257.137 162.087 257.181C163.425 257.203 164.849 257.466 165.748 258.454C165.485 258.717 165.091 258.871 164.718 258.915C159.479 259.529 156.256 260.539 150.754 264.927C150.754 264.927 150.425 265.081 150.316 264.774L150.294 264.796Z" fill="#3C3C3B"/>
<path d="M124.359 227.996C122.43 231.156 115.174 245.309 119.777 257.664C119.974 258.168 120.216 258.695 120.698 258.958C121.64 259.485 122.758 258.629 123.482 257.817C126.091 254.855 128.217 251.41 129.423 247.635C130.299 244.848 130.65 241.864 130.321 238.968C130.321 238.968 130.935 242.457 134.903 247.328C135.429 247.986 136.679 249.303 137.446 249.676C138.213 250.049 139.265 249.939 139.726 249.237C140.054 248.754 140.032 248.118 139.967 247.548C139.769 245.836 139.287 244.146 138.564 242.566C142.378 246.121 146.39 249.786 151.366 251.322C152.856 251.783 154.807 251.87 155.64 250.554C156.079 249.852 156.035 248.952 155.904 248.14C155.553 246.165 154.654 244.278 153.339 242.764C155.86 246.099 159.192 248.842 162.984 250.664C164.957 251.629 167.149 252.331 169.319 252.09C171.49 251.849 173.923 250.795 174.142 248.601C175.085 239.516 171.884 231.748 170.087 229.049C158.972 212.306 144.702 219.767 141.72 219.394C135.034 218.538 127.735 222.071 124.359 227.952" fill="#3C3C3B"/>
<path d="M168.289 243.51C167.653 248.009 168.464 252.683 170.612 256.676C170.854 257.137 171.204 257.664 171.73 257.73C172.169 257.795 172.607 257.488 172.848 257.115C173.09 256.742 173.177 256.281 173.243 255.821C174.076 251.234 174.865 246.319 173.002 242.04C172.87 241.733 172.695 241.403 172.432 241.184C172.125 240.921 171.709 240.833 171.314 240.833C169.67 240.789 168.179 242.325 168.223 243.971" fill="#3C3C3B"/>
<g style="mix-blend-mode:multiply">
<path d="M158.029 293.278C158.029 293.278 148.471 300.432 134.727 293.366C134.727 293.366 146.849 306.708 158.029 293.278Z" fill="#F7C5B4"/>
</g>
<path d="M141.458 264.796C142.006 263.128 141.59 261.175 140.275 260.012C140.165 260.144 140.055 260.297 139.924 260.429C139.573 260.122 139.222 259.792 138.872 259.485L138.411 259.836C135.869 258.081 132.756 257.137 129.665 257.181C128.328 257.203 126.903 257.466 126.004 258.454C126.267 258.717 126.662 258.871 127.034 258.915C132.273 259.529 135.496 260.539 140.998 264.927C140.998 264.927 141.327 265.081 141.437 264.774L141.458 264.796Z" fill="#3C3C3B"/>
<path d="M151.191 279.19C149.854 281.516 146.96 282.899 144.286 282.438C144.089 282.394 143.957 282.219 143.979 281.999C144.001 281.824 144.154 281.714 144.308 281.692C146.697 281.45 148.889 280.485 150.643 278.773C150.906 278.488 151.366 278.861 151.169 279.19H151.191Z" fill="#DA806C"/>
<path d="M158.996 271.927C159.964 271.927 160.75 270.886 160.75 269.601C160.75 268.317 159.964 267.275 158.996 267.275C158.027 267.275 157.242 268.317 157.242 269.601C157.242 270.886 158.027 271.927 158.996 271.927Z" fill="#3C3C3B"/>
<path d="M133.851 269.601C133.851 270.896 133.062 271.927 132.097 271.927C131.133 271.927 130.344 270.874 130.344 269.601C130.344 268.329 131.133 267.275 132.097 267.275C133.062 267.275 133.851 268.329 133.851 269.601Z" fill="#3C3C3B"/>
<path d="M185.96 349H102.33C97.7295 349 94 352.733 94 357.339V411.057C94 415.662 97.7295 419.395 102.33 419.395H185.96C190.561 419.395 194.29 415.662 194.29 411.057V357.339C194.29 352.733 190.561 349 185.96 349Z" fill="#FF7E55"/>
<path d="M116.819 451.603C153.954 450.549 193.543 448.377 228.376 435.408C233.923 433.345 239.447 430.953 243.919 427.069C248.369 423.185 251.635 417.546 251.416 411.643C251.109 403.985 244.883 397.489 237.693 394.834C230.503 392.201 222.523 392.749 214.982 394.11C180.829 400.254 148.429 422.154 114.934 433.674L116.841 451.603H116.819Z" fill="#004A80"/>
<path d="M115.064 435.1C107.15 434.53 99.5655 433.432 91.63 433.454C86.0181 433.454 80.3186 433.652 75.0794 435.429C72.668 436.241 70.3663 437.404 68.6126 439.116C66.8589 440.828 65.6751 443.132 65.7409 445.523C65.8286 448.837 68.2838 451.843 71.3747 453.555C74.4437 455.288 78.0826 455.903 81.6339 456.254C93.4056 457.395 105.967 455.705 116.839 451.624L115.086 435.122L115.064 435.1Z" fill="#003A70"/>
<path d="M195.671 399.025C169.015 409.361 144.507 424.963 116.93 432.972C143.761 423.054 168.248 407.474 195.671 399.025Z" fill="#003A70"/>
<path d="M164.738 449.211C127.582 448.267 87.4 446.248 52.5451 433.389C46.999 431.348 41.4529 428.978 36.981 425.094C32.509 421.232 29.2208 415.593 29.44 409.69C29.725 402.032 35.9287 395.514 43.1189 392.859C50.3091 390.204 58.2885 390.731 65.8294 392.069C100.005 398.104 131.966 420.508 165.484 431.919L164.717 449.233L164.738 449.211Z" fill="#004A80"/>
<path d="M88.5625 398.279C115.307 406.859 139.332 421.869 165.484 431.897C138.587 423.778 114.517 408.725 88.5625 398.279Z" fill="#003A70"/>
<path d="M164.737 449.21C175.632 453.248 187.601 454.937 199.351 453.774C202.902 453.423 206.519 452.765 209.588 451.053C212.657 449.32 215.112 446.313 215.2 443C215.265 440.608 214.082 438.304 212.306 436.614C210.53 434.903 208.229 433.762 205.839 432.95C200.6 431.194 194.879 431.04 189.267 431.019C181.331 431.019 173.396 431.326 165.482 431.918L164.715 449.232L164.737 449.21Z" fill="#003A70"/>
<path d="M79.5312 378.574C82.2276 376.928 85.4719 376.533 88.5628 377.059C85.4939 377.432 82.5345 377.762 79.5312 378.574Z" fill="#DA806C"/>
<path d="M211.235 378.574C208.231 377.762 205.272 377.432 202.203 377.059C205.294 376.533 208.538 376.928 211.235 378.574Z" fill="#DA806C"/>
<path d="M432.771 179.126H302.339C291.855 179.126 283.355 187.634 283.355 198.129V310.174C283.355 320.669 291.855 329.177 302.339 329.177H432.771C443.256 329.177 451.755 320.669 451.755 310.174V198.129C451.755 187.634 443.256 179.126 432.771 179.126Z" fill="#0080EA"/>
<path d="M301.617 146.145C301.617 109.85 331.277 80.1602 367.535 80.1602C403.792 80.1602 433.452 109.85 433.452 146.145V179.148" stroke="#0080EA" stroke-width="4.68" stroke-miterlimit="10"/>
<path d="M433.472 147.417C433.472 111.122 403.812 81.4326 367.554 81.4326C331.296 81.4326 301.637 111.122 301.637 147.417V180.421" stroke="#0080EA" stroke-width="4.68" stroke-miterlimit="10"/>
<path d="M367.534 293.123C379.52 293.123 389.236 283.397 389.236 271.399C389.236 259.401 379.52 249.675 367.534 249.675C355.548 249.675 345.832 259.401 345.832 271.399C345.832 283.397 355.548 293.123 367.534 293.123Z" fill="#004A80"/>
<path d="M382.636 236.816C382.636 245.155 375.885 251.913 367.555 251.913C359.224 251.913 352.473 245.155 352.473 236.816C352.473 228.477 359.224 221.719 367.555 221.719C375.885 221.719 382.636 228.477 382.636 236.816Z" fill="#004A80"/>
<path d="M192.972 176.604H123.832V178.951H192.972V176.604Z" fill="#0080EA"/>
<path d="M192.972 185.842H123.832V188.19H192.972V185.842Z" fill="#0080EA"/>
<path d="M192.972 194.707H123.832V197.055H192.972V194.707Z" fill="#0080EA"/>
<path d="M160.243 203.507H123.832V205.855H160.243V203.507Z" fill="#0080EA"/>
<path d="M605.951 51.6992H471.441V56.2635H605.951V51.6992Z" fill="#8176EE"/>
<path d="M605.951 69.6709H471.441V74.2352H605.951V69.6709Z" fill="#8176EE"/>
<path d="M605.951 86.9189H471.441V91.4832H605.951V86.9189Z" fill="#8176EE"/>
<path d="M542.269 104.035H471.441V108.599H542.269V104.035Z" fill="#8176EE"/>
<path d="M610.663 249.061H466.75V251.409H610.663V249.061Z" fill="#00B2C5"/>
<path d="M610.663 258.299H466.75V260.647H610.663V258.299Z" fill="#00B2C5"/>
<path d="M610.663 267.164H466.75V269.512H610.663V267.164Z" fill="#00B2C5"/>
<path d="M611.54 275.964H466.75V278.312H611.54V275.964Z" fill="#00B2C5"/>
<path opacity="0.9" d="M477.842 231.462H466.75V243.224H477.842V231.462Z" fill="#E94552"/>
<path d="M610.663 309.274H466.75V311.622H610.663V309.274Z" fill="#407CCA"/>
<path d="M610.663 318.513H466.75V320.861H610.663V318.513Z" fill="#407CCA"/>
<path d="M610.663 327.378H466.75V329.726H610.663V327.378Z" fill="#407CCA"/>
<path d="M611.54 336.178H466.75V338.526H611.54V336.178Z" fill="#407CCA"/>
<path opacity="0.9" d="M477.842 291.676H466.75V303.438H477.842V291.676Z" fill="#E94552"/>
<g style="mix-blend-mode:multiply">
<path d="M12.8886 39.5869H227.126C232.321 39.5869 236.53 43.8001 236.53 49.0008V124.838C236.53 130.039 232.321 134.252 227.126 134.252H12.8886C7.69327 134.252 3.48438 130.039 3.48438 124.838V49.0008C3.48438 43.8001 7.69327 39.5869 12.8886 39.5869Z" fill="#C7D4E2"/>
</g>
<path d="M223.641 43.6465H9.40425C4.21042 43.6465 0 47.8612 0 53.0603V124.86C0 130.059 4.21042 134.274 9.40425 134.274H223.641C228.835 134.274 233.046 130.059 233.046 124.86V53.0603C233.046 47.8612 228.835 43.6465 223.641 43.6465Z" fill="white"/>
<path d="M71.5725 115.095C67.7362 105.352 59.7349 95.6094 43.1624 95.6094C26.5461 95.6094 18.5667 105.33 14.7305 115.073H71.5725V115.095Z" fill="#00B2C5"/>
<path d="M56.7323 77.8571C56.7323 85.3619 50.6601 91.4403 43.163 91.4403C35.666 91.4403 29.5938 85.3619 29.5938 77.8571C29.5938 70.3524 35.666 64.2959 43.163 64.2959C50.6601 64.2959 56.7323 70.3743 56.7323 77.8571Z" fill="#00B2C5"/>
<path d="M222.917 75.377H79.0039V77.7249H222.917V75.377Z" fill="#407CCA"/>
<path d="M222.917 84.6152H79.0039V86.9632H222.917V84.6152Z" fill="#407CCA"/>
<path d="M222.917 93.4805H79.0039V95.8284H222.917V93.4805Z" fill="#407CCA"/>
<path d="M154.786 102.28H79.0039V104.628H154.786V102.28Z" fill="#407CCA"/>
<path d="M222.917 75.377H79.0039V77.7249H222.917V75.377Z" fill="#9FD8FF"/>
<path d="M222.917 84.6152H79.0039V86.9632H222.917V84.6152Z" fill="#9FD8FF"/>
<path d="M222.917 93.4805H79.0039V95.8284H222.917V93.4805Z" fill="#9FD8FF"/>
<path d="M154.786 102.28H79.0039V104.628H154.786V102.28Z" fill="#9FD8FF"/>
<path d="M306.724 358.056H507.085C514.429 358.056 520.391 364.024 520.391 371.376V406.837C520.391 414.188 514.429 420.156 507.085 420.156H306.724C299.381 420.156 293.418 414.188 293.418 406.837V371.376C293.418 364.024 299.381 358.056 306.724 358.056Z" fill="#B6B0F3" stroke="#B6B0F3" stroke-width="0.43" stroke-miterlimit="10"/>
<path d="M508.203 374.602H364.289V376.95H508.203V374.602Z" fill="#F5FBFF"/>
<path d="M508.203 383.84H364.289V386.188H508.203V383.84Z" fill="#F5FBFF"/>
<path d="M508.203 392.705H364.289V395.053H508.203V392.705Z" fill="#F5FBFF"/>
<path d="M509.079 401.505H364.289V403.853H509.079V401.505Z" fill="#F5FBFF"/>
<path d="M330.88 410.567C342.721 410.567 352.32 400.959 352.32 389.106C352.32 377.254 342.721 367.646 330.88 367.646C319.04 367.646 309.441 377.254 309.441 389.106C309.441 400.959 319.04 410.567 330.88 410.567Z" stroke="#48418C" stroke-width="1.93" stroke-miterlimit="10"/>
<path d="M345.985 374.097L315.777 404.357" stroke="#48418C" stroke-width="1.93" stroke-miterlimit="10"/>
<path opacity="0.9" d="M265.909 193.737C278.751 180.882 278.751 160.041 265.909 147.187C253.068 134.333 232.249 134.333 219.407 147.187C206.566 160.041 206.566 180.882 219.407 193.737C232.249 206.591 253.068 206.591 265.909 193.737Z" fill="#FB3375"/>
<path d="M243.263 185.337H242.715C240.589 185.337 238.791 183.713 238.572 181.584L235.591 151.653C235.35 149.195 237.279 147.089 239.734 147.089H245.565C247.976 147.089 249.905 149.152 249.708 151.565L247.384 181.497C247.209 183.669 245.411 185.337 243.241 185.337H243.263Z" fill="white"/>
<path d="M247.189 191.986C247.189 194.487 245.172 196.528 242.651 196.528C240.13 196.528 238.113 194.509 238.113 191.986C238.113 189.462 240.13 187.443 242.651 187.443C245.172 187.443 247.189 189.462 247.189 191.986Z" fill="white"/>
</g>
<defs>
<clipPath id="clip0_2650_7133">
<rect width="735" height="471" fill="white"/>
</clipPath>
</defs>
</svg>
