<svg width="48" height="48" viewBox="0 0 48 48" fill="none" xmlns="http://www.w3.org/2000/svg">
<path d="M23.971 24.0002V0.334473L11.9824 12.168L23.971 24.0002Z" fill="#713E97"/>
<path d="M35.9658 12.168L23.9785 0.334473V24.0002L35.9658 12.168Z" fill="#713E97"/>
<path d="M23.9785 23.9997H47.9544L35.9658 12.1675L23.9785 23.9997Z" fill="#713E97"/>
<path d="M35.9658 35.8323L47.9544 24H23.9785L35.9658 35.8323Z" fill="#713E97"/>
<path d="M11.9885 12.1675L0 23.9997H23.9758L11.9885 12.1675Z" fill="#0272FF"/>
<path d="M23.9785 24V47.6657L35.9658 35.8323L23.9785 24Z" fill="#713E97"/>
<path d="M35.9896 35.8086L23.9785 47.6643H48.0007L35.9896 35.8086Z" fill="#2FBEC5"/>
<path d="M23.9758 24H0L11.9885 35.8323L23.9758 24Z" fill="#0272FF"/>
<path d="M11.9824 35.8323L23.971 47.6657V24L11.9824 35.8323Z" fill="#713E97"/>
</svg>
